<svg version="1.1" viewBox="0.0 0.0 348.0 358.0" fill="none" stroke="none" stroke-linecap="square" stroke-miterlimit="10" width="348" height="358" xmlns:xlink="http://www.w3.org/1999/xlink" xmlns="http://www.w3.org/2000/svg"><path fill="#ffffff" fill-opacity="0.0" d="M0 0L348.0 0L348.0 358.0L0 358.0L0 0Z" fill-rule="nonzero"/><path fill="#ea4335" d="M64.0027 104.176926C91.325455 71.72897 131.58064 53.0 174.0 53.0L174.0 124.9C152.79031 124.9 132.66273 134.26448 119.00135 150.48846Z" fill-rule="nonzero"/><path fill="#4285f4" d="M174.0 53.0C241.44922 53.0 299.83456 99.87994 314.4048 165.73663C328.97504 231.59334 295.81424 298.72708 234.65988 327.17953C173.50552 355.63196 100.793526 337.7562 59.80243 284.19196C18.811337 230.62773 20.55796 155.77103 64.0027 104.176926L119.00135 150.48846C97.27898 176.2855 96.40567 213.71387 116.901215 240.49599C137.39676 267.2781 173.75276 276.21597 204.32994 261.98975C234.90712 247.76353 251.48752 214.19667 244.2024 181.26833C236.91728 148.33997 207.72461 124.9 174.0 124.9Z" fill-rule="nonzero"/><path fill="#757575" d="M145.54688 36.4L145.54688 22.087502L150.9375 22.087502Q152.375 22.087502 153.125 22.212502Q154.17188 22.400002 154.89062 22.900002Q155.60938 23.384377 156.03125 24.275002Q156.46875 25.165627 156.46875 26.228127Q156.46875 28.056252 155.29688 29.321877Q154.14062 30.571877 151.10938 30.571877L147.4375 30.571877L147.4375 36.4L145.54688 36.4ZM147.4375 28.884377L151.14062 28.884377Q152.96875 28.884377 153.73438 28.212502Q154.51562 27.525002 154.51562 26.275002Q154.51562 25.384377 154.0625 24.743752Q153.60938 24.103127 152.875 23.900002Q152.39062 23.775002 151.09375 23.775002L147.4375 23.775002L147.4375 28.884377ZM158.23438 40.4L158.04688 38.74375Q158.625 38.9 159.04688 38.9Q159.64062 38.9 159.98438 38.696877Q160.34375 38.509377 160.5625 38.165627Q160.73438 37.9 161.10938 36.853127Q161.15625 36.696877 161.26562 36.415627L157.32812 26.025002L159.21875 26.025002L161.375 32.040627Q161.79688 33.18125 162.125 34.43125Q162.4375 33.228127 162.84375 32.071877L165.0625 26.025002L166.82812 26.025002L162.875 36.571877Q162.25 38.290627 161.89062 38.93125Q161.42188 39.80625 160.8125 40.196877Q160.21875 40.603127 159.375 40.603127Q158.85938 40.603127 158.23438 40.4ZM172.15625 34.821877L172.40625 36.384377Q171.67188 36.540627 171.07812 36.540627Q170.125 36.540627 169.59375 36.24375Q169.07812 35.93125 168.85938 35.446877Q168.64062 34.946877 168.64062 33.36875L168.64062 27.400002L167.35938 27.400002L167.35938 26.025002L168.64062 26.025002L168.64062 23.462502L170.39062 22.400002L170.39062 26.025002L172.15625 26.025002L172.15625 27.400002L170.39062 27.400002L170.39062 33.4625Q170.39062 34.2125 170.48438 34.43125Q170.57812 34.634377 170.78125 34.775Q171.0 34.9 171.39062 34.9Q171.67188 34.9 172.15625 34.821877ZM174.3125 36.4L174.3125 22.087502L176.07812 22.087502L176.07812 27.212502Q177.3125 25.790627 179.1875 25.790627Q180.32812 25.790627 181.17188 26.243752Q182.03125 26.696877 182.39062 27.509377Q182.76562 28.306252 182.76562 29.821877L182.76562 36.4L181.01562 36.4L181.01562 29.821877Q181.01562 28.509377 180.4375 27.915627Q179.85938 27.306252 178.82812 27.306252Q178.04688 27.306252 177.34375 27.712502Q176.65625 28.118752 176.35938 28.821877Q176.07812 29.509377 176.07812 30.728127L176.07812 36.4L174.3125 36.4ZM183.67188 31.212502Q183.67188 28.337502 185.26562 26.946877Q186.60938 25.790627 188.53125 25.790627Q190.67188 25.790627 192.01562 27.196877Q193.375 28.603127 193.375 31.071877Q193.375 33.071877 192.78125 34.228127Q192.1875 35.36875 191.03125 36.009377Q189.89062 36.634377 188.53125 36.634377Q186.34375 36.634377 185.0 35.24375Q183.67188 33.8375 183.67188 31.212502ZM185.46875 31.212502Q185.46875 33.2125 186.32812 34.196877Q187.20312 35.18125 188.53125 35.18125Q189.84375 35.18125 190.70312 34.196877Q191.57812 33.196877 191.57812 31.150002Q191.57812 29.228127 190.70312 28.243752Q189.82812 27.243752 188.53125 27.243752Q187.20312 27.243752 186.32812 28.243752Q185.46875 29.228127 185.46875 31.212502ZM195.3125 36.4L195.3125 26.025002L196.90625 26.025002L196.90625 27.509377Q198.04688 25.790627 200.20312 25.790627Q201.14062 25.790627 201.92188 26.134377Q202.71875 26.462502 203.10938 27.009377Q203.5 27.556252 203.65625 28.306252Q203.75 28.806252 203.75 30.025002L203.75 36.4L201.98438 36.4L201.98438 30.087502Q201.98438 29.009377 201.78125 28.478127Q201.57812 27.946877 201.04688 27.634377Q200.53125 27.321877 199.82812 27.321877Q198.70312 27.321877 197.89062 28.040627Q197.07812 28.743752 197.07812 30.728127L197.07812 36.4L195.3125 36.4Z" fill-rule="nonzero"/></svg>